<svg width="2000" height="322" viewBox="0 0 2000 322" fill="none" xmlns="http://www.w3.org/2000/svg">
<g clip-path="url(#clip0_154_100)">
<path d="M661.88 282L658.46 258.06H616.52L604.82 282H582.5L644.96 159.6H664.04L683.48 282H661.88ZM634.88 220.62L626.24 238.26H655.76L653.24 220.62L649.64 189.66L634.88 220.62ZM787.445 261.3L783.845 282H712.925L734.525 159.6H803.645L800.045 180.3H752.525L747.305 209.64H789.425L785.825 230.34H743.705L738.125 261.3H787.445ZM818.429 282L840.029 159.6H878.549C887.309 159.6 894.449 161.22 899.969 164.46C905.489 167.7 909.329 172.14 911.489 177.78C913.769 183.42 914.249 189.78 912.929 196.86L911.489 204.96C908.969 218.76 901.589 228.24 889.349 233.4C896.189 249.6 901.589 265.8 905.549 282H882.149C878.909 266.76 874.409 251.76 868.649 237H847.949L840.029 282H818.429ZM877.469 179.4H858.209L851.549 217.2H870.629C875.909 217.2 880.169 216 883.409 213.6C886.649 211.08 888.689 207.78 889.529 203.7L890.969 195.96C891.929 190.68 891.209 186.6 888.809 183.72C886.529 180.84 882.749 179.4 877.469 179.4ZM1036.48 209.64L1032.52 231.78C1029.52 248.1 1023.82 260.88 1015.42 270.12C1007.02 279.24 995.437 283.8 980.677 283.8C970.957 283.8 962.797 281.58 956.197 277.14C949.597 272.7 944.917 266.58 942.157 258.78C939.397 250.86 938.917 241.86 940.717 231.78L944.677 209.64C947.557 193.56 953.197 180.9 961.597 171.66C970.117 162.42 981.817 157.8 996.697 157.8C1006.42 157.8 1014.52 160.08 1021 164.64C1027.6 169.08 1032.28 175.2 1035.04 183C1037.8 190.8 1038.28 199.68 1036.48 209.64ZM1014.34 209.64C1016.02 200.16 1015.3 192.54 1012.18 186.78C1009.18 181.02 1003.54 178.14 995.257 178.14C987.337 178.14 981.037 180.96 976.357 186.6C971.677 192.24 968.497 199.92 966.817 209.64L962.857 231.78C961.177 241.62 961.837 249.36 964.837 255C967.957 260.64 973.597 263.46 981.757 263.46C989.917 263.46 996.277 260.7 1000.84 255.18C1005.4 249.66 1008.58 241.86 1010.38 231.78L1014.34 209.64ZM1180.81 261.3L1177.21 282H1106.29L1127.89 159.6H1197.01L1193.41 180.3H1145.89L1140.67 209.64H1182.79L1179.19 230.34H1137.07L1131.49 261.3H1180.81ZM1240.95 263.82C1249.11 263.82 1255.05 262.26 1258.77 259.14C1262.49 256.02 1264.35 252 1264.35 247.08C1264.35 243.72 1263.39 240.96 1261.47 238.8C1259.55 236.52 1256.49 234.42 1252.29 232.5L1239.15 226.56C1232.19 223.44 1226.91 219.42 1223.31 214.5C1219.71 209.46 1217.91 203.1 1217.91 195.42C1217.91 188.34 1219.41 181.98 1222.41 176.34C1225.53 170.58 1230.27 166.08 1236.63 162.84C1242.99 159.48 1251.09 157.8 1260.93 157.8C1266.45 157.8 1271.79 158.46 1276.95 159.78C1282.11 161.1 1287.63 163.08 1293.51 165.72L1285.95 184.26C1280.79 182.1 1276.35 180.48 1272.63 179.4C1268.91 178.32 1265.01 177.78 1260.93 177.78C1247.37 177.78 1240.59 183 1240.59 193.44C1240.59 196.68 1241.49 199.32 1243.29 201.36C1245.09 203.4 1248.15 205.44 1252.47 207.48L1265.61 213.42C1272.33 216.42 1277.55 220.44 1281.27 225.48C1285.11 230.52 1287.03 237.12 1287.03 245.28C1287.03 252.12 1285.47 258.48 1282.35 264.36C1279.35 270.24 1274.43 274.98 1267.59 278.58C1260.87 282.06 1251.99 283.8 1240.95 283.8C1234.71 283.8 1228.59 283.14 1222.59 281.82C1216.59 280.38 1210.17 277.98 1203.33 274.62L1210.89 256.08C1217.13 258.96 1222.47 261 1226.91 262.2C1231.35 263.28 1236.03 263.82 1240.95 263.82ZM1317.38 180.3L1320.98 159.6H1410.98L1407.38 180.3H1373.18L1355.18 282H1333.58L1351.58 180.3H1317.38ZM1471.11 282L1467.69 258.06H1425.75L1414.05 282H1391.73L1454.19 159.6H1473.27L1492.71 282H1471.11ZM1444.11 220.62L1435.47 238.26H1464.99L1462.47 220.62L1458.87 189.66L1444.11 220.62ZM1512.92 180.3L1516.52 159.6H1606.52L1602.92 180.3H1568.72L1550.72 282H1529.12L1547.12 180.3H1512.92ZM1687.76 261.3L1684.16 282H1613.24L1634.84 159.6H1703.96L1700.36 180.3H1652.84L1647.62 209.64H1689.74L1686.14 230.34H1644.02L1638.44 261.3H1687.76ZM1747.91 263.82C1756.07 263.82 1762.01 262.26 1765.73 259.14C1769.45 256.02 1771.31 252 1771.31 247.08C1771.31 243.72 1770.35 240.96 1768.43 238.8C1766.51 236.52 1763.45 234.42 1759.25 232.5L1746.11 226.56C1739.15 223.44 1733.87 219.42 1730.27 214.5C1726.67 209.46 1724.87 203.1 1724.87 195.42C1724.87 188.34 1726.37 181.98 1729.37 176.34C1732.49 170.58 1737.23 166.08 1743.59 162.84C1749.95 159.48 1758.05 157.8 1767.89 157.8C1773.41 157.8 1778.75 158.46 1783.91 159.78C1789.07 161.1 1794.59 163.08 1800.47 165.72L1792.91 184.26C1787.75 182.1 1783.31 180.48 1779.59 179.4C1775.87 178.32 1771.97 177.78 1767.89 177.78C1754.33 177.78 1747.55 183 1747.55 193.44C1747.55 196.68 1748.45 199.32 1750.25 201.36C1752.05 203.4 1755.11 205.44 1759.43 207.48L1772.57 213.42C1779.29 216.42 1784.51 220.44 1788.23 225.48C1792.07 230.52 1793.99 237.12 1793.99 245.28C1793.99 252.12 1792.43 258.48 1789.31 264.36C1786.31 270.24 1781.39 274.98 1774.55 278.58C1767.83 282.06 1758.95 283.8 1747.91 283.8C1741.67 283.8 1735.55 283.14 1729.55 281.82C1723.55 280.38 1717.13 277.98 1710.29 274.62L1717.85 256.08C1724.09 258.96 1729.43 261 1733.87 262.2C1738.31 263.28 1742.99 263.82 1747.91 263.82Z" fill="black"/>
<path d="M451.795 264.17C451.795 232.077 451.795 232.077 307.191 322.413C451.795 264.17 444.222 302.34 451.795 322.413V264.17Z" fill="black" stroke="black"/>
<path d="M549.892 41C512.358 91.1848 377.757 257.162 196 322.188C196 322.188 310.935 322.188 470.228 191.937V322.188L549.892 41Z" fill="black" stroke="black"/>
</g>
<defs>
<clipPath id="clip0_154_100">
<rect width="2000" height="322" fill="white"/>
</clipPath>
</defs>
</svg>
